<mxfile host="app.diagrams.net" modified="2022-08-27T06:49:07.056Z" agent="5.0 (Macintosh; Intel Mac OS X 10_15_7) AppleWebKit/537.36 (KHTML, like Gecko) Chrome/104.0.0.0 Safari/537.36" etag="O_QD3vLt8zzrGO_sPDFo" version="20.2.7" type="github">
  <diagram id="x14xOmkNCwI247f7zH2y" name="第 1 页">
    <mxGraphModel dx="1033" dy="644" grid="1" gridSize="10" guides="1" tooltips="1" connect="1" arrows="1" fold="1" page="1" pageScale="1" pageWidth="827" pageHeight="1169" math="0" shadow="0">
      <root>
        <mxCell id="0" />
        <mxCell id="1" parent="0" />
        <mxCell id="LIx4MNqIAYg-MDseizi4-1" value="" style="points=[[0.13,0.02,0],[0.5,0,0],[0.87,0.02,0],[0.885,0.4,0],[0.985,0.985,0],[0.5,1,0],[0.015,0.985,0],[0.115,0.4,0]];verticalLabelPosition=bottom;sketch=0;html=1;verticalAlign=top;aspect=fixed;align=center;pointerEvents=1;shape=mxgraph.cisco19.laptop;fillColor=#005073;strokeColor=none;" vertex="1" parent="1">
          <mxGeometry x="203" y="360" width="71.43" height="50" as="geometry" />
        </mxCell>
        <mxCell id="LIx4MNqIAYg-MDseizi4-2" value="" style="image;html=1;image=img/lib/clip_art/computers/Server_Rack_Partial_128x128.png" vertex="1" parent="1">
          <mxGeometry x="530" y="357" width="60" height="60" as="geometry" />
        </mxCell>
        <mxCell id="LIx4MNqIAYg-MDseizi4-3" value="" style="endArrow=classic;html=1;rounded=0;exitX=0.5;exitY=1;exitDx=0;exitDy=0;exitPerimeter=0;strokeWidth=3;" edge="1" parent="1" source="LIx4MNqIAYg-MDseizi4-1">
          <mxGeometry width="50" height="50" relative="1" as="geometry">
            <mxPoint x="288" y="470" as="sourcePoint" />
            <mxPoint x="240" y="1000" as="targetPoint" />
          </mxGeometry>
        </mxCell>
        <mxCell id="LIx4MNqIAYg-MDseizi4-4" value="" style="endArrow=classic;html=1;rounded=0;exitX=0.5;exitY=1;exitDx=0;exitDy=0;exitPerimeter=0;strokeWidth=3;" edge="1" parent="1">
          <mxGeometry width="50" height="50" relative="1" as="geometry">
            <mxPoint x="559.215" y="411" as="sourcePoint" />
            <mxPoint x="559" y="1000" as="targetPoint" />
          </mxGeometry>
        </mxCell>
        <mxCell id="LIx4MNqIAYg-MDseizi4-6" value="" style="endArrow=classic;html=1;rounded=0;strokeWidth=2;fillColor=#e51400;strokeColor=#B20000;" edge="1" parent="1">
          <mxGeometry width="50" height="50" relative="1" as="geometry">
            <mxPoint x="240" y="488" as="sourcePoint" />
            <mxPoint x="560" y="520" as="targetPoint" />
          </mxGeometry>
        </mxCell>
        <mxCell id="LIx4MNqIAYg-MDseizi4-7" value="&lt;b&gt;&lt;font color=&quot;#3333ff&quot; style=&quot;font-size: 17px;&quot;&gt;Eatbelised&lt;/font&gt;&lt;/b&gt;" style="text;html=1;align=center;verticalAlign=middle;resizable=0;points=[];autosize=1;strokeColor=none;fillColor=none;" vertex="1" parent="1">
          <mxGeometry x="111" y="435.5" width="110" height="30" as="geometry" />
        </mxCell>
        <mxCell id="LIx4MNqIAYg-MDseizi4-8" value="&lt;b&gt;&lt;font color=&quot;#3333ff&quot; style=&quot;font-size: 17px;&quot;&gt;Eatbelised&lt;/font&gt;&lt;/b&gt;" style="text;html=1;align=center;verticalAlign=middle;resizable=0;points=[];autosize=1;strokeColor=none;fillColor=none;" vertex="1" parent="1">
          <mxGeometry x="584" y="453.5" width="110" height="30" as="geometry" />
        </mxCell>
        <mxCell id="LIx4MNqIAYg-MDseizi4-9" value="" style="shape=curlyBracket;whiteSpace=wrap;html=1;rounded=1;fontSize=17;strokeWidth=2;fillColor=#6a00ff;fontColor=#ffffff;strokeColor=#3700CC;" vertex="1" parent="1">
          <mxGeometry x="221" y="415" width="13" height="73" as="geometry" />
        </mxCell>
        <mxCell id="LIx4MNqIAYg-MDseizi4-10" value="" style="shape=curlyBracket;whiteSpace=wrap;html=1;rounded=1;flipH=1;fontSize=17;fontColor=#ffffff;strokeWidth=2;fillColor=#0050ef;strokeColor=#001DBC;" vertex="1" parent="1">
          <mxGeometry x="565" y="417" width="20" height="113" as="geometry" />
        </mxCell>
        <mxCell id="LIx4MNqIAYg-MDseizi4-11" value="&lt;b&gt;&lt;font color=&quot;#ff0000&quot;&gt;FIN Packet&lt;/font&gt;&lt;/b&gt;" style="text;html=1;align=center;verticalAlign=middle;resizable=0;points=[];autosize=1;strokeColor=none;fillColor=none;fontSize=17;fontColor=#3333FF;rotation=5;" vertex="1" parent="1">
          <mxGeometry x="340" y="473" width="110" height="30" as="geometry" />
        </mxCell>
        <mxCell id="LIx4MNqIAYg-MDseizi4-12" value="" style="shape=curlyBracket;whiteSpace=wrap;html=1;rounded=1;fontSize=17;fontColor=#ffffff;strokeWidth=2;fillColor=#e51400;strokeColor=#B20000;" vertex="1" parent="1">
          <mxGeometry x="220" y="492" width="14" height="88" as="geometry" />
        </mxCell>
        <mxCell id="LIx4MNqIAYg-MDseizi4-13" value="&lt;b&gt;FIN_WAIT_1&lt;/b&gt;" style="text;html=1;align=center;verticalAlign=middle;resizable=0;points=[];autosize=1;strokeColor=none;fillColor=none;fontSize=17;fontColor=#FF0000;" vertex="1" parent="1">
          <mxGeometry x="106" y="520" width="120" height="30" as="geometry" />
        </mxCell>
        <mxCell id="LIx4MNqIAYg-MDseizi4-14" value="" style="endArrow=classic;html=1;rounded=0;fontSize=17;fontColor=#FF0000;strokeWidth=2;fillColor=#6a00ff;strokeColor=#3700CC;" edge="1" parent="1">
          <mxGeometry width="50" height="50" relative="1" as="geometry">
            <mxPoint x="560" y="530" as="sourcePoint" />
            <mxPoint x="240" y="580" as="targetPoint" />
          </mxGeometry>
        </mxCell>
        <mxCell id="LIx4MNqIAYg-MDseizi4-17" value="&lt;b&gt;&lt;font color=&quot;#3333ff&quot;&gt;ACK Packet&lt;/font&gt;&lt;/b&gt;" style="text;html=1;align=center;verticalAlign=middle;resizable=0;points=[];autosize=1;strokeColor=none;fillColor=none;fontSize=17;fontColor=#FF0000;rotation=-10;" vertex="1" parent="1">
          <mxGeometry x="320" y="530" width="120" height="30" as="geometry" />
        </mxCell>
        <mxCell id="LIx4MNqIAYg-MDseizi4-19" value="" style="shape=curlyBracket;whiteSpace=wrap;html=1;rounded=1;fontSize=17;fontColor=#ffffff;strokeWidth=2;fillColor=#6a00ff;strokeColor=#3700CC;dashed=1;" vertex="1" parent="1">
          <mxGeometry x="220" y="585" width="14" height="185" as="geometry" />
        </mxCell>
        <mxCell id="LIx4MNqIAYg-MDseizi4-20" value="&lt;b&gt;FIN_WAIT_2&lt;/b&gt;" style="text;html=1;align=center;verticalAlign=middle;resizable=0;points=[];autosize=1;strokeColor=none;fillColor=none;fontSize=17;fontColor=#FF0000;" vertex="1" parent="1">
          <mxGeometry x="100" y="660.5" width="120" height="30" as="geometry" />
        </mxCell>
        <mxCell id="LIx4MNqIAYg-MDseizi4-21" value="" style="shape=curlyBracket;whiteSpace=wrap;html=1;rounded=1;flipH=1;fontSize=17;fontColor=#000000;strokeWidth=2;fillColor=#fa6800;strokeColor=#C73500;" vertex="1" parent="1">
          <mxGeometry x="566" y="536" width="20" height="131" as="geometry" />
        </mxCell>
        <mxCell id="LIx4MNqIAYg-MDseizi4-22" value="&lt;b&gt;&lt;font color=&quot;#ff0000&quot;&gt;CLOSE_WIAT&lt;/font&gt;&lt;/b&gt;" style="text;html=1;align=center;verticalAlign=middle;resizable=0;points=[];autosize=1;strokeColor=none;fillColor=none;fontSize=17;fontColor=#3333FF;" vertex="1" parent="1">
          <mxGeometry x="583" y="589" width="130" height="30" as="geometry" />
        </mxCell>
        <mxCell id="LIx4MNqIAYg-MDseizi4-23" value="" style="endArrow=classic;html=1;rounded=0;fontSize=17;fontColor=#FF0000;strokeWidth=2;fillColor=#60a917;strokeColor=#00CC00;dashed=1;" edge="1" parent="1">
          <mxGeometry width="50" height="50" relative="1" as="geometry">
            <mxPoint x="550" y="610" as="sourcePoint" />
            <mxPoint x="240" y="670" as="targetPoint" />
          </mxGeometry>
        </mxCell>
        <mxCell id="LIx4MNqIAYg-MDseizi4-24" value="&lt;b&gt;&lt;font color=&quot;#00cc00&quot;&gt;Remain Data Packet&lt;/font&gt;&lt;/b&gt;" style="text;html=1;align=center;verticalAlign=middle;resizable=0;points=[];autosize=1;strokeColor=none;fillColor=none;fontSize=17;fontColor=#FF0000;rotation=-10;" vertex="1" parent="1">
          <mxGeometry x="308" y="610" width="190" height="30" as="geometry" />
        </mxCell>
        <mxCell id="LIx4MNqIAYg-MDseizi4-26" value="" style="endArrow=classic;html=1;rounded=0;fontSize=17;fontColor=#00CC00;strokeColor=#B20000;strokeWidth=2;fillColor=#e51400;" edge="1" parent="1">
          <mxGeometry width="50" height="50" relative="1" as="geometry">
            <mxPoint x="560" y="670" as="sourcePoint" />
            <mxPoint x="240" y="730" as="targetPoint" />
          </mxGeometry>
        </mxCell>
        <mxCell id="LIx4MNqIAYg-MDseizi4-27" value="&lt;b&gt;&lt;font color=&quot;#ff0000&quot;&gt;FIN Packet&lt;/font&gt;&lt;/b&gt;" style="text;html=1;align=center;verticalAlign=middle;resizable=0;points=[];autosize=1;strokeColor=none;fillColor=none;fontSize=17;fontColor=#00CC00;rotation=-10;" vertex="1" parent="1">
          <mxGeometry x="340" y="670" width="110" height="30" as="geometry" />
        </mxCell>
        <mxCell id="LIx4MNqIAYg-MDseizi4-29" value="" style="shape=curlyBracket;whiteSpace=wrap;html=1;rounded=1;flipH=1;fontSize=17;fontColor=#ffffff;strokeWidth=2;fillColor=#6a00ff;strokeColor=#3700CC;dashed=1;" vertex="1" parent="1">
          <mxGeometry x="566" y="675" width="20" height="165" as="geometry" />
        </mxCell>
        <mxCell id="LIx4MNqIAYg-MDseizi4-30" value="&lt;b&gt;LAST_ACK&lt;/b&gt;" style="text;html=1;align=center;verticalAlign=middle;resizable=0;points=[];autosize=1;strokeColor=none;fillColor=none;fontSize=17;fontColor=#FF0000;" vertex="1" parent="1">
          <mxGeometry x="586" y="742.5" width="110" height="30" as="geometry" />
        </mxCell>
        <mxCell id="LIx4MNqIAYg-MDseizi4-31" value="" style="endArrow=classic;html=1;rounded=0;fontSize=17;fontColor=#FF0000;strokeColor=#001DBC;strokeWidth=2;fillColor=#0050ef;" edge="1" parent="1">
          <mxGeometry width="50" height="50" relative="1" as="geometry">
            <mxPoint x="240" y="770" as="sourcePoint" />
            <mxPoint x="550" y="790" as="targetPoint" />
          </mxGeometry>
        </mxCell>
        <mxCell id="LIx4MNqIAYg-MDseizi4-32" value="&lt;b&gt;ACK Packet&lt;/b&gt;" style="text;html=1;align=center;verticalAlign=middle;resizable=0;points=[];autosize=1;strokeColor=#001DBC;fillColor=#0050ef;fontSize=17;fontColor=#ffffff;rotation=5;" vertex="1" parent="1">
          <mxGeometry x="339" y="745.5" width="120" height="30" as="geometry" />
        </mxCell>
        <mxCell id="LIx4MNqIAYg-MDseizi4-33" value="" style="shape=curlyBracket;whiteSpace=wrap;html=1;rounded=1;labelBackgroundColor=#FF0000;fontSize=17;strokeWidth=2;fillColor=#e51400;strokeColor=#B20000;fontColor=#ffffff;" vertex="1" parent="1">
          <mxGeometry x="219" y="775.5" width="15" height="120" as="geometry" />
        </mxCell>
        <mxCell id="LIx4MNqIAYg-MDseizi4-34" value="&lt;b&gt;TIEM_WAIT&lt;/b&gt;" style="text;html=1;align=center;verticalAlign=middle;resizable=0;points=[];autosize=1;strokeColor=none;fillColor=none;fontSize=17;fontColor=#FF0000;" vertex="1" parent="1">
          <mxGeometry x="101" y="820.5" width="120" height="30" as="geometry" />
        </mxCell>
        <mxCell id="LIx4MNqIAYg-MDseizi4-35" value="" style="shape=curlyBracket;whiteSpace=wrap;html=1;rounded=1;flipH=1;labelBackgroundColor=#FF0000;fontSize=17;fontColor=#ffffff;strokeWidth=2;fillColor=#e51400;strokeColor=#B20000;" vertex="1" parent="1">
          <mxGeometry x="566" y="850" width="20" height="130" as="geometry" />
        </mxCell>
        <mxCell id="LIx4MNqIAYg-MDseizi4-37" value="&lt;b&gt;CLOSE&lt;/b&gt;" style="text;html=1;align=center;verticalAlign=middle;resizable=0;points=[];autosize=1;strokeColor=none;fillColor=none;fontSize=17;fontColor=#FF0000;" vertex="1" parent="1">
          <mxGeometry x="584" y="900" width="80" height="30" as="geometry" />
        </mxCell>
        <mxCell id="LIx4MNqIAYg-MDseizi4-38" value="Linux Wait&lt;br&gt;60 Second" style="text;html=1;align=center;verticalAlign=middle;resizable=0;points=[];autosize=1;strokeColor=none;fillColor=none;fontSize=17;fontColor=#FF0000;" vertex="1" parent="1">
          <mxGeometry x="241" y="796" width="100" height="50" as="geometry" />
        </mxCell>
        <mxCell id="LIx4MNqIAYg-MDseizi4-39" value="" style="shape=curlyBracket;whiteSpace=wrap;html=1;rounded=1;labelBackgroundColor=#FF0000;fontSize=17;fontColor=#ffffff;strokeWidth=2;fillColor=#e51400;strokeColor=#B20000;" vertex="1" parent="1">
          <mxGeometry x="220" y="904" width="14" height="74" as="geometry" />
        </mxCell>
        <mxCell id="LIx4MNqIAYg-MDseizi4-40" value="&lt;b&gt;CLOSE&lt;/b&gt;" style="text;html=1;align=center;verticalAlign=middle;resizable=0;points=[];autosize=1;strokeColor=none;fillColor=none;fontSize=17;fontColor=#FF0000;" vertex="1" parent="1">
          <mxGeometry x="126" y="926" width="80" height="30" as="geometry" />
        </mxCell>
        <mxCell id="LIx4MNqIAYg-MDseizi4-43" value="" style="endArrow=classic;html=1;rounded=0;fontSize=17;fontColor=#FF0000;strokeWidth=2;fillColor=#60a917;strokeColor=#00CC00;dashed=1;" edge="1" parent="1">
          <mxGeometry width="50" height="50" relative="1" as="geometry">
            <mxPoint x="554" y="805.5" as="sourcePoint" />
            <mxPoint x="244" y="865.5" as="targetPoint" />
          </mxGeometry>
        </mxCell>
        <mxCell id="LIx4MNqIAYg-MDseizi4-44" value="&lt;font color=&quot;#00cc00&quot;&gt;&lt;b&gt;Retry FIN&lt;/b&gt;&lt;/font&gt;" style="text;html=1;align=center;verticalAlign=middle;resizable=0;points=[];autosize=1;strokeColor=none;fillColor=none;fontSize=17;fontColor=#FF0000;rotation=-10;" vertex="1" parent="1">
          <mxGeometry x="375" y="800" width="100" height="30" as="geometry" />
        </mxCell>
      </root>
    </mxGraphModel>
  </diagram>
</mxfile>
